<svg width="95" height="30" viewBox="0 0 95 30" fill="none" xmlns="http://www.w3.org/2000/svg">
<path d="M33.0312 1.54923H33.3169L33.7549 2.26096H34.0205L33.5639 1.5309C33.8111 1.51167 33.9824 1.37709 33.9824 1.08852C33.9824 0.761851 33.7926 0.608398 33.4121 0.608398H32.7847V2.26096H33.0314V1.54923H33.0312ZM33.0312 0.81953H33.3738C33.5452 0.81953 33.7353 0.857982 33.7353 1.06965C33.7353 1.31923 33.545 1.33846 33.3357 1.33846H33.031V0.81953H33.0312Z" fill="white"/>
<path d="M33.3364 2.89885C34.0968 2.89885 34.763 2.26456 34.763 1.43801C34.763 0.611817 34.0968 0.015625 33.3364 0.015625C32.557 0.015625 31.8721 0.611817 31.8721 1.43801C31.8721 2.26438 32.557 2.89885 33.3364 2.89885ZM33.3364 0.246518C33.9827 0.246518 34.4779 0.765271 34.4779 1.43801C34.4779 2.13016 33.9827 2.62968 33.3364 2.62968C32.6893 2.62968 32.1764 2.12998 32.1764 1.43801C32.1766 0.765271 32.6894 0.246518 33.3364 0.246518Z" fill="white"/>
<path d="M31.575 22.4696C31.575 23.3441 30.8849 24.0533 30.0348 24.0533C29.1846 24.0533 28.4958 23.3441 28.4958 22.4696C28.4958 21.5956 29.1846 20.8876 30.0348 20.8876C30.8849 20.8876 31.575 21.5956 31.575 22.4696Z" fill="white"/>
<path d="M50.6617 3.25986C48.3918 1.95959 38.2935 4.89961 35.0532 16.1258C34.6718 16.2335 32.8392 16.7234 32.8392 16.7234L32.0381 18.9421L34.8795 18.0509C34.8795 18.0509 34.5677 23.4328 39.3325 23.5936C43.0741 23.4499 45.0311 17.9793 43.8327 14.1307C43.6045 14.2548 40.6145 15.734 40.6145 15.734C40.6145 15.734 41.3072 19.9579 39.6443 20.4748C39.1059 20.5457 38.4739 18.8548 39.0532 16.322C47.0019 12.0724 52.0413 4.05614 50.6617 3.25986ZM47.4917 5.82585C49.0156 5.6845 41.6885 13.7027 39.8166 14.0944C39.2108 13.7385 44.4596 6.59241 47.4917 5.82585Z" fill="white"/>
<path d="M46.2962 13.5085V15.094C46.2962 15.094 48.3234 13.74 48.4792 13.9897C48.5307 14.7022 45.9681 20.726 45.9157 21.6341C45.8634 22.1869 46.3658 24.272 48.7382 23.1849C49.9001 22.6686 53.0141 20.0437 53.0141 20.0437C53.0141 20.0437 52.5124 21.3829 52.7253 22.4535C52.9362 23.5245 54.2286 23.8065 55.3934 23.3631C56.5584 22.9187 57.8886 22.0081 58.4615 21.2957C58.3746 21.0634 58.0451 19.9945 58.0451 19.9945C58.0451 19.9945 57.0011 21.0077 56.744 20.8756C56.4861 20.7428 59.7086 11.0317 59.7086 11.0317C59.7086 11.0317 56.4044 10.9002 56.0749 10.9002C55.5306 13.4512 52.4453 19.923 50.3165 20.2085C49.5871 20.1549 52.8974 12.5638 53.0198 11.708C53.262 10.5851 52.4453 10.0688 51.4767 10.3004C50.4549 10.6574 46.2962 13.5085 46.2962 13.5085Z" fill="white"/>
<path d="M68.9994 10.7922C68.9994 10.7922 68.5989 11.8083 68.5241 11.9835C68.1062 11.2415 66.6607 9.79561 63.6764 11.7106C60.5614 13.7818 59.2305 17.3191 59.6497 21.0702C60.1056 24.1772 63.3734 24.5474 65.5771 21.9095C65.3497 22.5946 63.0119 29.9806 63.0119 29.9806L66.6413 30L72.5718 10.87L68.9994 10.7922ZM65.0203 20.0341C64.5074 20.3266 63.71 20.8144 63.5969 18.9583C63.5393 16.7703 65.2521 14.3241 65.5791 13.9406C66.4341 12.9444 67.5005 12.9261 67.4734 14.5037C67.3605 16.3202 66.2182 19.1926 65.0203 20.0341Z" fill="white"/>
<path d="M10.7152 23.3435C8.90021 21.3714 10.3118 17.7406 10.6161 14.5245C10.2117 14.94 6.17545 24.5879 2.54313 24.1711C-0.685264 23.1363 -0.281866 19.4 0.726976 16.5994H5.97289C4.35877 21.1633 6.57833 19.2964 8.0922 16.3921C11.1191 10.0639 11.3211 9.54547 14.6508 0C16.5675 0 18.4839 0 20.4021 0C18.687 5.39527 17.0719 10.6862 16.3667 16.2882C16.3667 16.4954 16.467 16.703 16.669 16.5994C17.8788 16.3921 24.5386 1.03875 25.1435 0C26.8594 0 28.8774 0 30.6922 0C30.6922 0.518752 24.5386 17.8441 25.5476 19.5036C26.0526 20.4371 26.7593 18.6744 27.3637 17.9473L28.2727 18.8816C26.4565 20.9573 24.3382 24.6906 21.3109 24.0689C20.9069 23.965 20.5034 23.7588 20.2014 23.4466C17.0721 20.6459 22.7227 10.5207 22.1182 9.85611C21.9301 9.87765 21.742 10.3923 21.4109 11.1007C19.695 14.7323 15.7621 24.2761 12.5313 24.2761C12.0278 24.2761 11.0174 23.7586 10.7152 23.3435Z" fill="white"/>
<path d="M76.0893 20.4967C82.8158 16.8619 84.4306 12.2508 82.36 10.9608C79.2994 9.20216 70.9203 12.3481 71.8706 20.9661C71.4509 21.2196 70.5759 21.7085 70.5759 21.7085L71.1855 23.4278C71.1855 23.4278 72.4205 22.6664 72.7392 22.4389C77.0203 26.0077 81.7177 20.1559 81.7177 20.1559L80.8962 18.8552C80.8963 18.8552 77.3412 22.3714 76.0893 20.4967ZM76.9813 15.2203C77.9503 13.4617 79.5097 12.0941 80.2694 12.6413C81.0295 13.1888 79.4898 15.963 75.8665 18.911C75.7216 18.6542 76.0119 16.9793 76.9813 15.2203Z" fill="white"/>
<path d="M87.1113 11.0976L91.0071 10.9808C91.0071 10.9808 85.5346 15.4208 86.332 19.6175C86.961 22.1685 89.2761 20.9259 90.5507 18.0347C90.7961 17.4679 92.3366 13.6184 91.367 13.6184C90.3978 13.6184 89.3859 15.5921 89.3859 15.5921L88.3258 14.498C88.3258 14.498 90.4733 11.3513 92.9185 10.5089C93.2107 10.4142 94.9767 10.0432 94.9966 12.6414C95.0739 13.8528 93.8014 20.4973 89.3734 22.8414C85.3116 24.9891 83.5294 22.4172 83.208 21.6496C80.9828 15.9695 87.1113 11.0976 87.1113 11.0976Z" fill="white"/>
</svg>
