<svg width="38" height="32" viewBox="0 0 38 32" fill="none" xmlns="http://www.w3.org/2000/svg">
<path d="M12.1621 14.5144C11.2261 14.2449 10.2902 14.1082 9.37981 14.1082C7.97394 14.1082 6.80085 14.4295 5.89124 14.8229C6.76816 11.6125 8.87478 6.0731 13.0713 5.44928C13.4599 5.39149 13.7784 5.11047 13.8844 4.73219L14.8016 1.45165C14.8789 1.17422 14.8331 0.87726 14.6749 0.636501C14.5166 0.395743 14.2623 0.235104 13.9773 0.19604C13.6676 0.153788 13.3519 0.132263 13.039 0.132263C8.00184 0.132263 3.01333 5.38989 0.908304 12.918C-0.327365 17.3346 -0.689695 23.9745 2.35404 28.1539C4.05727 30.4926 6.54216 31.7414 9.73975 31.8662C9.7529 31.8666 9.76566 31.867 9.77881 31.867C13.7242 31.867 17.2227 29.2099 18.287 25.4059C18.9228 23.1319 18.6354 20.747 17.477 18.689C16.331 16.6541 14.4437 15.1709 12.1621 14.5144Z" fill="#636363"/>
<path d="M36.859 18.6894C35.713 16.6541 33.8256 15.1709 31.544 14.5144C30.6081 14.2449 29.6722 14.1082 28.7622 14.1082C27.3563 14.1082 26.1828 14.4295 25.2732 14.8229C26.1501 11.6125 28.2567 6.0731 32.4536 5.44928C32.8423 5.39148 33.1604 5.11047 33.2668 4.73219L34.184 1.45165C34.2613 1.17422 34.2155 0.87726 34.0572 0.636501C33.8994 0.395743 33.6451 0.235104 33.3597 0.19604C33.0503 0.153788 32.7346 0.132263 32.4213 0.132263C27.3842 0.132263 22.3957 5.38989 20.2903 12.918C19.055 17.3345 18.6927 23.9745 21.7368 28.1547C23.4396 30.493 25.9249 31.7422 29.1221 31.8666C29.1353 31.867 29.148 31.8674 29.1616 31.8674C33.1065 31.8674 36.6055 29.2102 37.6697 25.4063C38.3047 23.1323 38.0169 20.747 36.859 18.6894Z" fill="#636363"/>
</svg>
