<svg width="18" height="20" viewBox="0 0 18 20" fill="none" xmlns="http://www.w3.org/2000/svg">
<path d="M10.7868 18.1619C5.37125 18.1619 7.6494 18.1619 2.0747 18.1619V5.69376H3.40919V3.85608H1.73592C0.927713 3.85608 0.270508 4.5132 0.270508 5.32105V18.5346C0.270508 19.3438 0.926388 19.9999 1.73556 19.9999C3.73729 19.9999 7.49406 19.9999 11.1259 19.9999C11.9351 19.9999 12.5909 19.3441 12.5909 18.5346C12.5909 18.3972 12.5909 18.2736 12.5909 18.1438H10.7867V18.1619H10.7868Z" fill="#3F3F3F"/>
<path d="M17.4768 2.74456L14.9843 0.251597C14.8215 0.0888723 14.6051 0 14.376 0H6.8741C6.0659 0 5.40869 0.657165 5.40869 1.46533V14.6786C5.40869 15.4878 6.06457 16.144 6.8741 16.144C8.87547 16.144 12.6323 16.144 16.2641 16.144C17.0732 16.144 17.7291 15.4881 17.7291 14.6786C17.7291 6.17909 17.7291 12.0711 17.7291 3.35289C17.7291 3.1231 17.6397 2.90692 17.4768 2.74456ZM15.9249 14.3062C10.5091 14.3062 12.7875 14.3062 7.2126 14.3062V1.83805H13.2709V3.44988C13.2709 4.02435 13.7379 4.49177 14.3124 4.49177H15.9249V14.3062Z" fill="#3F3F3F"/>
</svg>
