<svg width="811" height="209" viewBox="0 0 811 209" fill="none" xmlns="http://www.w3.org/2000/svg">
<path d="M720.021 82.8999V124.617H768.932V173.527H810.649V82.8999H720.021ZM718.583 -8.93264e-05V41.9439C685.497 41.9439 659.295 68.4906 659.295 101.052C659.295 133.619 685.497 160.168 718.583 160.168V202.111C662.48 202.111 616.82 156.801 616.82 101.052C616.82 45.3066 662.48 -8.93264e-05 718.583 -8.93264e-05ZM233.92 37.7626C226.305 37.7626 220.312 43.7559 220.312 51.5332C220.312 59.1466 226.305 65.1399 233.92 65.1399C241.859 65.1399 247.852 59.1466 247.852 51.5332C247.852 43.7559 241.859 37.7626 233.92 37.7626ZM285.273 49.5892H264.537V75.1839H253.359V93.6506H264.537V158.287H285.273V93.6506H296.612V75.1839H285.273V49.5892ZM437.385 92.6786C446.132 92.6786 453.26 97.2146 458.768 103.533L473.184 89.2772C465.085 79.0719 452.288 72.5919 437.709 72.5919C412.599 72.5919 392.836 91.7079 392.836 116.653C392.836 141.601 412.599 160.719 437.709 160.719C452.288 160.719 465.085 154.237 473.184 144.032L458.768 129.777C453.423 135.932 446.132 140.631 437.223 140.631C423.937 140.631 413.733 130.263 413.733 116.653C413.733 103.048 423.937 92.6786 437.385 92.6786ZM526.804 72.5919C516.6 72.5919 507.851 76.4786 501.696 83.1212V40.0319H480.96V158.287H501.696V113.089C501.696 101.103 509.309 92.8399 521.945 92.8399C533.772 92.8399 540.249 100.131 540.249 113.089V158.287H560.985V109.365C560.985 86.3626 546.569 72.5919 526.804 72.5919ZM343.265 72.5919C318.32 72.5919 299.365 91.7079 299.365 117.14C299.365 142.249 316.699 160.719 343.588 160.719C358.493 160.719 371.776 155.209 381.496 144.841L367.565 131.073C360.76 137.552 353.472 142.249 344.075 142.249C332.736 142.249 324.149 135.771 321.235 124.916H385.871V119.895C385.871 91.5452 368.375 72.5919 343.265 72.5919ZM320.749 108.069C323.501 97.0532 331.925 90.8972 342.78 90.8972C353.633 90.8972 361.732 96.8906 364.324 108.069H320.749ZM170.58 187.769C157.296 187.769 146.767 177.404 146.767 163.957H125.708C125.708 188.904 145.471 208.019 170.58 208.019C195.688 208.019 215.453 188.904 215.453 163.957H194.393C194.393 177.404 183.864 187.769 170.58 187.769ZM223.715 158.287H244.451V75.1839H223.715V158.287ZM0 158.287H20.736V40.0319H0V158.287ZM73.708 72.5919C48.5987 72.5919 28.836 91.7079 28.836 116.653C28.836 141.601 48.5987 160.719 73.708 160.719C98.8173 160.719 118.579 141.601 118.579 116.653C118.579 91.7079 98.8173 72.5919 73.708 72.5919ZM73.708 140.631C60.424 140.631 49.8933 130.101 49.8933 116.492C49.8933 103.048 60.424 92.6786 73.708 92.6786C87.1533 92.6786 97.6827 103.048 97.6827 116.653C97.6827 130.263 87.1533 140.631 73.708 140.631ZM214.643 91.7079V75.1839H185.483C180.785 73.5652 175.763 72.5919 170.58 72.5919C145.471 72.5919 125.708 91.7079 125.708 116.653C125.708 141.601 145.471 160.719 170.58 160.719C195.688 160.719 215.453 141.601 215.453 116.653C215.453 108.231 213.184 99.9679 208.649 93.8132L214.643 91.7079ZM170.58 140.631C157.296 140.631 146.767 130.101 146.767 116.492C146.767 103.048 157.296 92.6786 170.58 92.6786C184.025 92.6786 194.556 103.048 194.556 116.653C194.556 130.263 184.025 140.631 170.58 140.631Z" fill="white"/>
</svg>
