<svg width="36" height="45" viewBox="0 0 36 45" fill="none" xmlns="http://www.w3.org/2000/svg">
<path d="M25.404 24.9499H31.5205V11.9193H18.2327V17.9176H25.404V24.9499ZM18.1247 29.0598C9.89882 29.0598 3.20392 22.5452 3.20392 14.5293C3.20392 6.5142 9.89882 -2.40405e-06 18.1247 -2.40405e-06V6.03066C13.2736 6.03066 9.43156 9.84777 9.43156 14.5293C9.43156 19.2118 13.2736 23.0291 18.1247 23.0291V29.0598ZM14.8131 34.4271C14.331 34.4271 13.9516 34.7994 13.9516 35.2821C13.9516 35.7551 14.331 36.1272 14.8131 36.1272C15.316 36.1272 15.6954 35.7551 15.6954 35.2821C15.6954 34.7994 15.316 34.4271 14.8131 34.4271ZM18.0652 35.1614H16.752V36.751H16.0443V37.8977H16.752V41.9117H18.0652V37.8977H18.7831V36.751H18.0652V35.1614ZM27.6977 37.8372C28.2516 37.8372 28.703 38.1191 29.0517 38.5115L29.9647 37.6262C29.4519 36.9924 28.6414 36.59 27.7182 36.59C26.1282 36.59 24.8767 37.777 24.8767 39.3262C24.8767 40.8755 26.1282 42.0625 27.7182 42.0625C28.6414 42.0625 29.4519 41.6601 29.9647 41.0263L29.0517 40.1412C28.7132 40.5234 28.2516 40.8151 27.6875 40.8151C26.8461 40.8151 26.2 40.1713 26.2 39.3262C26.2 38.4812 26.8461 37.8372 27.6977 37.8372ZM33.3602 36.59C32.7141 36.59 32.16 36.8314 31.7702 37.2437V34.5679H30.4572V41.9117H31.7702V39.1048C31.7702 38.3605 32.2525 37.8474 33.0526 37.8474C33.8015 37.8474 34.2118 38.3001 34.2118 39.1048V41.9117H35.5247V38.8736C35.5247 37.445 34.6119 36.59 33.3602 36.59ZM20.3117 38.793C20.486 38.1089 21.0194 37.7267 21.7068 37.7267C22.3942 37.7267 22.9071 38.099 23.071 38.793H20.3117ZM21.7375 36.59C20.1579 36.59 18.9576 37.777 18.9576 39.3564C18.9576 40.9156 20.0552 42.0625 21.7581 42.0625C22.7018 42.0625 23.543 41.7205 24.1586 41.0766L23.2763 40.2216C22.8454 40.6239 22.3838 40.9156 21.7888 40.9156C21.0709 40.9156 20.5271 40.5132 20.3424 39.8393H24.4355V39.5275C24.4355 37.767 23.3276 36.59 21.7375 36.59ZM10.8022 43.7424C9.96105 43.7424 9.2942 43.0986 9.2942 42.2638H7.9607C7.9607 43.8128 9.21202 45 10.8022 45C12.3923 45 13.6438 43.8128 13.6438 42.2638H12.3101C12.3101 43.0986 11.6434 43.7424 10.8022 43.7424ZM14.167 41.9117H15.4802V36.751H14.167V41.9117ZM0 41.9117H1.31315V34.5681H0V41.9117ZM4.66755 40.8151C3.82655 40.8151 3.1597 40.1613 3.1597 39.3161C3.1597 38.4812 3.82655 37.8372 4.66755 37.8372C5.51911 37.8372 6.18596 38.4812 6.18596 39.3262C6.18596 40.1713 5.51911 40.8151 4.66755 40.8151ZM4.66755 36.59C3.07772 36.59 1.8262 37.777 1.8262 39.3262C1.8262 40.8755 3.07772 42.0625 4.66755 42.0625C6.25777 42.0625 7.50909 40.8755 7.50909 39.3262C7.50909 37.777 6.25777 36.59 4.66755 36.59ZM10.8022 40.8151C9.96105 40.8151 9.2942 40.1613 9.2942 39.3161C9.2942 38.4812 9.96105 37.8372 10.8022 37.8372C11.6536 37.8372 12.3205 38.4812 12.3205 39.3262C12.3205 40.1713 11.6536 40.8151 10.8022 40.8151ZM13.5925 37.777V36.751H11.746C11.4483 36.6504 11.1304 36.59 10.8022 36.59C9.21202 36.59 7.9607 37.777 7.9607 39.3262C7.9607 40.8755 9.21202 42.0625 10.8022 42.0625C12.3923 42.0625 13.6438 40.8755 13.6438 39.3262C13.6438 38.8032 13.5002 38.2901 13.2129 37.9078L13.5925 37.777Z" fill="white"/>
</svg>
