<svg width="128" height="27" viewBox="0 0 128 27" fill="none" xmlns="http://www.w3.org/2000/svg">
<path d="M10.045 0.799998L4.10498 10.808C2.77298 13.04 1.62098 15.272 1.62098 17.756C1.62098 23.012 6.12098 26.36 10.837 26.36C15.733 26.36 19.801 22.4 19.801 17.504C19.801 12.464 15.769 8.828 10.981 8.828H10.657L15.409 0.799998H10.045ZM7.81298 13.76C8.74898 13.328 9.61298 13.148 10.513 13.148C13.213 13.148 15.013 15.236 15.013 17.648C15.013 20.06 13.249 22.04 10.765 22.04C8.31698 22.04 6.30098 20.132 6.30098 17.756C6.30098 16.064 7.12898 14.696 7.81298 13.76ZM44.7985 0.799998L31.6585 17.36V20.24H43.3585V26H48.2185V20.24H52.3585V15.92H48.2185V0.799998H44.7985ZM38.6425 15.92L43.3585 10.016V15.92H38.6425ZM63.1931 26L69.1331 15.992C70.4651 13.76 71.6171 11.528 71.6171 9.044C71.6171 3.788 67.1171 0.439999 62.4011 0.439999C57.5051 0.439999 53.4371 4.4 53.4371 9.296C53.4371 14.336 57.4691 17.972 62.2571 17.972H62.5811L57.8291 26H63.1931ZM65.4251 13.04C64.4891 13.472 63.6251 13.652 62.7251 13.652C60.0251 13.652 58.2251 11.564 58.2251 9.152C58.2251 6.74 59.9891 4.76 62.4731 4.76C64.9211 4.76 66.9371 6.668 66.9371 9.044C66.9371 10.736 66.1091 12.104 65.4251 13.04ZM87.9914 13.4C87.9914 18.152 86.9474 22.04 84.0314 22.04C81.1154 22.04 80.0714 18.152 80.0714 13.4C80.0714 8.648 81.1154 4.76 84.0314 4.76C86.9474 4.76 87.9914 8.648 87.9914 13.4ZM75.2114 13.4C75.2114 20.564 77.5874 26.36 84.0314 26.36C90.4754 26.36 92.8514 20.564 92.8514 13.4C92.8514 6.236 90.4754 0.439999 84.0314 0.439999C77.5874 0.439999 75.2114 6.236 75.2114 13.4ZM107.761 26V22.148H104.881V18.656H107.761V15.848H104.881V11.384H107.761V0.295998H115.969C119.281 0.295998 121.693 0.967998 123.205 2.312C124.741 3.656 125.509 5.504 125.509 7.856C125.509 9.248 125.197 10.556 124.573 11.78C123.949 13.004 122.905 13.988 121.441 14.732C120.001 15.476 118.033 15.848 115.537 15.848H113.197V18.656H118.741V22.148H113.197V26H107.761ZM113.197 11.384H114.997C116.533 11.384 117.745 11.12 118.633 10.592C119.545 10.064 120.001 9.212 120.001 8.036C120.001 5.852 118.561 4.76 115.681 4.76H113.197V11.384Z" fill="white"/>
<rect x="0.547363" y="4.6626" width="127.359" height="6" transform="rotate(4.70181 0.547363 4.6626)" fill="#ED1C24"/>
</svg>
